{
  "accessors": [
    {
      "bufferView": 2,
      "componentType": 5126,
      "count": 488,
      "max": [
        1.3089100122451782,
        0.74833601713180542,
        1.4852770566940308
      ],
      "min": [
        -1.3052220344543457,
        -0.75466299057006836,
        -0.0059000002220273018
      ],
      "type": "VEC3"
    },
    {
      "bufferView": 2,
      "byteOffset": 5856,
      "componentType": 5126,
      "count": 488,
      "max": [
        1,
        0.98976665735244751,
        0.99817788600921631
      ],
      "min": [
        -1,
        -0.99326145648956299,
        -0.92304056882858276
      ],
      "type": "VEC3"
    },
    {
      "bufferView": 3,
      "componentType": 5126,
      "count": 488,
      "max": [
        1,
        0.99999791383743286,
        1,
        1
      ],
      "min": [
        -1,
        -0.99908584356307983,
        -1,
        -1
      ],
      "type": "VEC4"
    },
    {
      "bufferView": 1,
      "componentType": 5126,
      "count": 488,
      "max": [
        0.99962401390075684,
        0.97558301687240601
      ],
      "min": [
        0.019631000235676765,
        0.023951999843120575
      ],
      "type": "VEC2"
    },
    {
      "bufferView": 0,
      "componentType": 5125,
      "count": 864,
      "max": [
        487
      ],
      "min": [
        0
      ],
      "type": "SCALAR"
    }
  ],
  "asset": {
    "extras": {
      "author": "aurelkillers1 (https://sketchfab.com/aurelkillers1)",
      "license": "CC-BY-4.0 (http://creativecommons.org/licenses/by/4.0/)",
      "source": "https://sketchfab.com/3d-models/folding-table-878d6eca6ff14f84bccca081cc5f95a7",
      "title": "Folding Table"
    },
    "generator": "Sketchfab-8.47.0",
    "version": "2.0"
  },
  "bufferViews": [
    {
      "buffer": 0,
      "byteLength": 3456,
      "byteOffset": 0,
      "name": "floatBufferViews",
      "target": 34963
    },
    {
      "buffer": 0,
      "byteLength": 3904,
      "byteOffset": 3456,
      "byteStride": 8,
      "name": "floatBufferViews",
      "target": 34962
    },
    {
      "buffer": 0,
      "byteLength": 11712,
      "byteOffset": 7360,
      "byteStride": 12,
      "name": "floatBufferViews",
      "target": 34962
    },
    {
      "buffer": 0,
      "byteLength": 7808,
      "byteOffset": 19072,
      "byteStride": 16,
      "name": "floatBufferViews",
      "target": 34962
    }
  ],
  "buffers": [
    {
      "byteLength": 26880,
      "uri": "scene.bin"
    }
  ],
  "images": [
    {
      "uri": "textures/Table_baseColor.png"
    },
    {
      "uri": "textures/Table_normal.png"
    }
  ],
  "materials": [
    {
      "doubleSided": true,
      "name": "Table",
      "normalTexture": {
        "index": 1,
        "scale": 1,
        "texCoord": 0
      },
      "pbrMetallicRoughness": {
        "baseColorFactor": [
          1,
          1,
          1,
          1
        ],
        "baseColorTexture": {
          "index": 0,
          "texCoord": 0
        },
        "metallicFactor": 0,
        "roughnessFactor": 0.59999999999999998
      }
    }
  ],
  "meshes": [
    {
      "primitives": [
        {
          "attributes": {
            "NORMAL": 1,
            "POSITION": 0,
            "TANGENT": 2,
            "TEXCOORD_0": 3
          },
          "indices": 4,
          "material": 0,
          "mode": 4
        }
      ]
    }
  ],
  "nodes": [
    {
      "children": [
        1
      ],
      "name": "RootNode (gltf orientation matrix)",
      "rotation": [
        -0.70710678118654746,
        -0,
        -0,
        0.70710678118654757
      ]
    },
    {
      "children": [
        2
      ],
      "name": "RootNode (model correction matrix)"
    },
    {
      "children": [
        3
      ],
      "name": "folding_table.obj.cleaner.materialmerger.gles"
    },
    {
      "mesh": 0,
      "name": ""
    }
  ],
  "samplers": [
    {
      "magFilter": 9729,
      "minFilter": 9987,
      "wrapS": 10497,
      "wrapT": 10497
    }
  ],
  "scene": 0,
  "scenes": [
    {
      "name": "OSG_Scene",
      "nodes": [
        0
      ]
    }
  ],
  "textures": [
    {
      "sampler": 0,
      "source": 0
    },
    {
      "sampler": 0,
      "source": 1
    }
  ]
}

